<?xml version="1.0" encoding="utf-8"?>
<!-- Svg Vector Icons : http://www.onlinewebfonts.com/icon -->
<!DOCTYPE svg PUBLIC "-//W3C//DTD SVG 1.1//EN" "http://www.w3.org/Graphics/SVG/1.1/DTD/svg11.dtd">
<svg version="1.1" xmlns="http://www.w3.org/2000/svg" xmlns:xlink="http://www.w3.org/1999/xlink" x="0px" y="0px" viewBox="0 0 1000 1000" enable-background="new 0 0 1000 1000" xml:space="preserve">
<metadata> Svg Vector Icons : http://www.onlinewebfonts.com/icon </metadata>
<g><g transform="translate(0.000000,511.000000) scale(0.100000,-0.100000)"><path d="M5118.6,4954.3c-128.6-52.6-185.2-116.9-185.2-214.4c0-85.8,11.7-103.3,510.6-727c169.6-210.5,313.8-395.7,317.7-409.3c5.8-15.6-138.4-81.9-426.8-193c-610.1-237.8-575-241.7-1444.3,109.2c-202.7,81.9-395.7,154-428.8,159.8c-83.8,15.6-364.5-93.6-419-161.8c-23.4-31.2-39-79.9-39-130.6c0-78,5.8-87.7,302.1-372.3l304.1-294.3l-29.2-56.5c-35.1-66.3-40.9-189.1-11.7-245.6c11.7-19.5,58.5-56.5,103.3-79.9c79.9-42.9,97.5-44.8,617.9-44.8c545.7,1.9,896.6,25.3,1315.6,87.7c230,33.1,263.1,44.8,1865.3,678.3c921.9,364.5,1736.6,697.8,1871.1,766c192.9,99.4,265.1,148.1,378.1,259.2c150.1,150.1,194.9,241.7,175.4,352.8c-17.5,85.8-111.1,179.3-245.6,241.7c-93.6,42.9-138.4,50.7-370.3,56.5c-226.1,5.9-298.2,0-510.7-42.9c-335.2-68.2-481.4-116.9-1136.3-376.2c-309.9-122.8-578.9-224.1-594.5-226.1c-15.6,0-405.4,198.8-867.3,442.4c-460,243.6-863.4,448.3-896.6,452.2C5243.3,4989.3,5173.1,4975.7,5118.6,4954.3z M9348,4332.5c31.2-11.7,7.8-31.2-126.7-105.2c-200.7-109.2-235.8-122.8-2030.9-830.3c-789.4-311.8-1475.4-575-1526.1-586.7c-152-35.1-580.8-76-1031-99.4c-366.4-19.5-430.8-19.5-436.6,3.9c-3.9,15.6-85.8,103.3-179.3,198.8c-93.5,93.6-169.6,169.6-167.6,169.6c3.9,0,91.6-35.1,198.8-78c424.9-173.5,670.5-222.2,890.7-175.4c157.9,31.2,1274.7,475.6,1331.2,528.2c60.4,56.5,74.1,134.5,39,214.4c-15.6,37-136.4,202.7-270.9,368.4c-134.5,165.7-241.7,306-237.8,307.9c3.9,3.9,265.1-128.6,580.8-296.3c358.6-191,594.5-304.1,629.5-304.1c31.2,0,358.6,118.9,727,265.1c781.6,306,972.6,364.5,1385.8,424.9C9209.6,4350.1,9307.1,4348.1,9348,4332.5z"/><path d="M1058.7,565c-29.2-7.8-76-37-103.3-66.3c-44.8-48.7-46.8-60.4-46.8-331.3v-280.7l62.4-60.4c85.8-87.7,198.8-87.7,284.6-1.9c54.6,54.6,62.4,76,68.2,198.8l7.8,136.4h2722.8l2720.9-1.9l495.1-760.2c272.9-419,514.6-775.7,536-791.3c23.4-17.5,348.9-163.7,723.1-325.5l682.2-294.3l5.9-775.7l3.9-773.8h-210.5h-212.5l-23.4,83.8c-99.4,335.2-413.2,635.4-752.3,725c-220.2,56.5-442.4,27.3-670.5-85.8c-231.9-116.9-456.1-380.1-524.3-612l-33.1-111.1l-1508.6,3.9l-1508.6,5.8l-23.4,79.9c-99.4,337.2-442.4,654.9-785.5,727c-475.6,99.4-984.3-202.7-1153.8-688l-35.1-99.4h-105.3h-103.3l-3.9,368.4c-1.9,424.9-11.7,448.3-167.6,498.9l-91.6,29.2v113c0,99.4-7.8,120.8-56.5,171.5c-83.8,83.8-196.9,79.9-286.5-9.7l-66.3-66.3v-235.8c0-175.4,7.8-253.4,29.2-294.3c31.2-62.4,118.9-116.9,183.2-116.9c37,0,39-15.6,44.8-380.1l5.8-380.1l54.6-52.6c52.6-52.6,62.4-54.6,308-64.3l255.3-9.7l40.9-107.2c56.5-155.9,148.1-286.5,284.6-415.1c428.8-395.6,1021.3-364.5,1422.8,76c89.6,97.5,235.8,354.7,235.8,415.2c0,15.6,389.8,21.4,1516.4,21.4l1514.4-1.9l83.8-175.4c152-319.6,413.2-526.2,752.4-594.5c126.7-27.3,177.3-27.3,292.3-9.7c321.6,50.7,633.5,280.7,775.7,569.1c39,79.9,76,159.8,81.9,179.3c9.7,29.2,44.8,33.1,372.3,33.1h364.5l56.5,56.5l56.5,56.5v962.8c0,894.6-3.9,966.7-37.1,1038.8c-70.2,152-130.6,187.1-838.1,495c-366.4,157.9-678.3,300.2-693.9,315.8c-13.6,15.6-224.1,335.2-467.8,709.5c-245.6,376.2-475.6,715.3-512.6,754.3s-109.2,89.6-159.8,111.1c-93.6,40.9-120.8,40.9-2950.9,44.8C2399.6,576.7,1087.9,572.8,1058.7,565z M3052.6-3200.6c208.5-95.5,321.6-286.5,321.6-545.7c0-198.8-42.9-309.9-165.7-434.6c-118.9-118.9-237.8-161.8-440.5-161.8c-352.8,0-586.7,233.9-586.7,584.7c0,171.5,25.4,269,103.3,382C2434.7-3155.8,2781.7-3077.8,3052.6-3200.6z M8034.4-3183c126.7-42.9,239.7-146.2,304.1-278.7c48.7-97.5,54.6-132.5,54.6-286.5c-2-200.8-44.8-315.8-159.8-430.7c-124.7-124.7-204.6-154-434.6-154c-192.9,0-210.5,3.9-311.8,60.4c-189.1,107.2-292.4,296.3-292.4,536C7194.3-3296.1,7595.8-3033,8034.4-3183z"/><path d="M2699.8-249.7c-23.4-7.8-60.4-40.9-83.8-70.2c-40.9-50.7-40.9-66.3-40.9-746.5c0-769.9-1.9-758.2,128.6-812.8c97.5-40.9,4478.9-40.9,4578.3,0c79.9,35.1,134.5,130.6,120.8,216.4c-5.8,35.1-191,335.2-450.2,725c-370.3,557.4-452.2,668.5-502.9,686.1C6375.7-226.3,2764.1-224.4,2699.8-249.7z M5479.1-1068.3v-409.3H4231.8H2984.4v409.3V-659h1247.4h1247.4V-1068.3z M6521.9-1043c140.3-210.5,261.2-393.7,269-409.3c13.7-21.4-62.4-25.3-434.6-25.3h-448.3v409.3V-659h181.3h181.3L6521.9-1043z"/><path d="M156.3-715.5C62.7-811,90-992.3,206.9-1044.9c37-17.5,288.5-23.4,925.8-23.4c637.3,0,888.8,5.8,925.8,23.4c116.9,52.6,144.2,233.9,50.7,329.4l-56.5,56.5h-920h-920L156.3-715.5z"/><path d="M631.8-1506.9c-64.3-27.3-122.8-115-122.8-185.2c0-72.1,58.5-157.9,126.7-187.1c50.7-21.4,169.6-27.3,497-27.3c327.4,0,446.3,5.8,497,27.3c68.2,29.2,126.7,115,126.7,187.1s-58.5,157.9-126.7,187.1C1536.2-1465.9,723.5-1465.9,631.8-1506.9z"/></g></g>
</svg>